<svg width="70" height="70" viewBox="0 0 70 70" fill="none" xmlns="http://www.w3.org/2000/svg">
<path d="M6.5625 44.0645V25.9355C6.56395 24.8591 6.99222 23.8271 7.7534 23.0659C8.51459 22.3047 9.54657 21.8764 10.623 21.875H29.4137L32.7496 17.5H10.623C8.38658 17.5025 6.24244 18.3921 4.66101 19.9735C3.07959 21.5549 2.19003 23.6991 2.1875 25.9355V44.0645C2.19003 46.3009 3.07959 48.4451 4.66101 50.0265C6.24244 51.6079 8.38658 52.4975 10.623 52.5H23.8643C23.8215 52.1667 23.8335 51.8287 23.8998 51.4992L23.9203 51.3967L23.949 51.2969L24.8377 48.125H10.623C9.54657 48.1236 8.51459 47.6953 7.7534 46.9341C6.99222 46.1729 6.56395 45.1409 6.5625 44.0645Z" fill="#70B8DF"/>
<path d="M52.8145 17.5H39.3286C39.3688 17.828 39.3563 18.1603 39.2917 18.4844L39.2711 18.5855L39.2424 18.6854L38.3483 21.875H52.8145C53.891 21.8764 54.923 22.3047 55.6841 23.0659C56.4453 23.8271 56.8736 24.8591 56.875 25.9355V44.0645C56.8736 45.1409 56.4453 46.1729 55.6841 46.9341C54.923 47.6953 53.891 48.1236 52.8145 48.125H33.7696L30.4309 52.5H52.8145C55.051 52.4975 57.1951 51.6079 58.7765 50.0265C60.358 48.4451 61.2475 46.3009 61.25 44.0645V25.9355C61.2475 23.6991 60.358 21.5549 58.7765 19.9735C57.1951 18.3921 55.051 17.5025 52.8145 17.5Z" fill="#70B8DF"/>
<path d="M22.2373 40.2172C21.6308 40.2173 21.0357 40.0518 20.5162 39.7386C19.9968 39.4254 19.5727 38.9764 19.2897 38.4398C18.9969 37.8895 18.8602 37.2695 18.8945 36.6471C18.9287 36.0246 19.1325 35.4234 19.4838 34.9084L19.5262 34.8455L19.5713 34.7854L27.0184 25.0195H12.2623C11.5371 25.0195 10.8416 25.3076 10.3288 25.8204C9.81604 26.3332 9.52795 27.0287 9.52795 27.7539V42.2461C9.52795 42.9713 9.81604 43.6668 10.3288 44.1796C10.8416 44.6924 11.5371 44.9805 12.2623 44.9805H25.7182L27.0553 40.2145L22.2373 40.2172Z" fill="#70B8DF"/>
<path d="M37.744 38.4029L41.445 33.5507C41.4971 33.4716 41.5329 33.3828 41.5502 33.2896C41.5559 33.2598 41.5595 33.2297 41.5612 33.1994C41.5652 33.1404 41.5615 33.0811 41.5502 33.023C41.5343 32.9382 41.5028 32.8571 41.4573 32.7838C41.4275 32.736 41.3916 32.6924 41.3506 32.6539C41.3303 32.6347 41.3084 32.6173 41.285 32.6019C41.2386 32.5691 41.1874 32.5438 41.1332 32.5267C41.0753 32.5084 41.0149 32.4991 40.9541 32.4994H32.5295L34.1866 26.5918L34.6282 25.0195L35.4772 21.9898L35.5469 21.7383L36.612 17.9429C36.6162 17.9181 36.6185 17.8929 36.6188 17.8677C36.6188 17.8595 36.6188 17.8527 36.6188 17.8459C36.6188 17.839 36.6188 17.8103 36.612 17.7939C36.6051 17.7775 36.612 17.7816 36.612 17.7748C36.6065 17.7535 36.5987 17.7328 36.5887 17.7133C36.578 17.6948 36.5661 17.6769 36.5532 17.6599L36.5409 17.6463C36.5301 17.6351 36.5187 17.6246 36.5067 17.6148L36.493 17.6039C36.4761 17.5917 36.4582 17.5807 36.4397 17.5711C36.4218 17.5627 36.403 17.5563 36.3836 17.5519H36.3659H36.3208H36.303C36.2825 17.5499 36.2619 17.5499 36.2415 17.5519C36.2216 17.5565 36.2023 17.5634 36.184 17.5724L36.1663 17.582L36.1252 17.6107L36.1102 17.6244C36.0917 17.6411 36.0752 17.6599 36.061 17.6804L33.6 20.9111L31.8036 23.2654L30.4569 25.0195L21.7465 36.4423C21.7236 36.4771 21.7035 36.5137 21.6864 36.5517C21.6645 36.5993 21.6484 36.6493 21.6385 36.7007C21.6268 36.7588 21.6231 36.8181 21.6276 36.8771C21.6322 36.9768 21.6591 37.0741 21.7065 37.1619C21.7538 37.2497 21.8203 37.3257 21.901 37.3843C21.9247 37.4001 21.9493 37.4142 21.9749 37.4267C22.0554 37.4657 22.1438 37.4858 22.2333 37.4855H30.6579L26.5809 52.0351C26.5789 52.0606 26.5789 52.0862 26.5809 52.1117C26.5809 52.1117 26.5809 52.1254 26.5809 52.1322C26.5822 52.1497 26.5849 52.1671 26.5891 52.1841C26.5883 52.1905 26.5883 52.1969 26.5891 52.2033C26.5946 52.2246 26.6024 52.2452 26.6124 52.2648C26.6231 52.2829 26.635 52.3002 26.6479 52.3168L26.6602 52.3304L26.6944 52.3632C26.6995 52.3661 26.7041 52.3698 26.7081 52.3742C26.7247 52.3865 26.7426 52.397 26.7614 52.4056C26.7795 52.4134 26.7983 52.4198 26.8174 52.4248H26.8352C26.8502 52.4261 26.8653 52.4261 26.8803 52.4248H26.8981C26.9188 52.4241 26.9394 52.4213 26.9596 52.4166C26.979 52.4113 26.9978 52.404 27.0157 52.3947L27.0334 52.3851L27.0745 52.3564L27.0895 52.3441C27.108 52.3274 27.1245 52.3085 27.1387 52.2881L30.327 48.125L32.7237 44.9804L37.744 38.4029Z" fill="#70B8DF"/>
<path d="M43.6816 35.1271L43.6187 35.2092L36.1635 44.9805H51.1752C51.9004 44.9805 52.5959 44.6924 53.1087 44.1796C53.6215 43.6668 53.9095 42.9713 53.9095 42.2461V27.7539C53.9095 27.0287 53.6215 26.3332 53.1087 25.8204C52.5959 25.3076 51.9004 25.0195 51.1752 25.0195H37.4677L36.1361 29.7678H40.9541C41.555 29.767 42.1448 29.9289 42.6611 30.2363C43.1774 30.5437 43.6009 30.9851 43.8867 31.5137C44.1837 32.0592 44.3278 32.6748 44.3038 33.2955C44.2797 33.9162 44.0884 34.5188 43.75 35.0396L43.6816 35.1271Z" fill="#70B8DF"/>
<path d="M65.625 27.7087C65.0448 27.7087 64.4884 27.9392 64.0782 28.3494C63.668 28.7597 63.4375 29.3161 63.4375 29.8962V40.1037C63.4375 40.6838 63.668 41.2402 64.0782 41.6505C64.4884 42.0607 65.0448 42.2912 65.625 42.2912C66.2052 42.2912 66.7616 42.0607 67.1718 41.6505C67.582 41.2402 67.8125 40.6838 67.8125 40.1037V29.8962C67.8125 29.3161 67.582 28.7597 67.1718 28.3494C66.7616 27.9392 66.2052 27.7087 65.625 27.7087Z" fill="#70B8DF"/>
</svg>
