<svg width="70" height="70" viewBox="0 0 70 70" fill="none" xmlns="http://www.w3.org/2000/svg">
<path d="M65.1875 16.0417L52.5 28.5833C52.5 28.5833 48.7083 28.5833 44.9167 24.7917C41.125 21 41.125 17.2083 41.125 17.2083L53.8125 4.52083C46.6667 2.77083 38.0625 5.10416 32.8125 10.3542C24.9375 18.2292 31.9375 28.2917 29.8958 30.3333C18.8125 41.8542 7.4375 50.6042 7.14584 51.0417C3.79167 54.3958 3.64584 59.7917 6.85417 63C10.0625 66.2083 15.4583 66.0625 18.8125 62.7083C19.25 62.2708 28.5833 50.4583 39.5208 39.5208C41.5625 37.4792 51.1875 44.9167 59.3542 36.8958C64.4583 31.6458 66.9375 23.1875 65.1875 16.0417ZM13.7083 59.9375C11.6667 59.9375 10.0625 58.3333 10.0625 56.2917C10.0625 54.1042 11.6667 52.5 13.7083 52.5C15.75 52.5 17.3542 54.1042 17.3542 56.1458C17.3542 58.1875 15.75 59.9375 13.7083 59.9375Z" fill="#70B8DF"/>
</svg>
