<svg width="70" height="70" viewBox="0 0 70 70" fill="none" xmlns="http://www.w3.org/2000/svg">
<path d="M29.3103 44.9775L47.5592 20.256C48.1633 19.4376 49.2808 19.1943 50.1705 19.6875C50.9713 20.1313 51.364 21.0478 51.1621 21.9164L51.0726 22.2034L39.7849 50.7839C38.5599 53.8855 35.0524 55.4069 31.9508 54.1819C31.7073 54.0857 31.4704 53.9739 31.2414 53.8469C28.324 52.2298 27.2699 48.5538 28.8871 45.6363L29.088 45.3L29.3103 44.9775ZM54.2778 21.624C56.4785 23.407 58.4703 25.5232 60.1759 27.959C61.7057 30.1438 63.1787 32.7892 64.0258 34.9541C64.466 36.0792 63.9109 37.3481 62.7858 37.7883C61.6607 38.2286 60.3918 37.6734 59.9516 36.5484C59.6678 35.8231 59.2892 35.0135 58.8512 34.1806L52.8735 37.6318C51.8272 38.2359 50.4894 37.8774 49.8853 36.8311C49.3316 35.872 49.5867 34.6679 50.4389 34.0086L50.686 33.8429L56.5726 30.4395L55.9005 29.5246C54.9558 28.2921 53.9224 27.1637 52.8155 26.1422L53.9243 23.3297C54.0348 23.0499 54.1188 22.7655 54.1775 22.4796L54.2467 22.0498L54.2778 21.624ZM46.6111 17.0704C46.1764 17.3228 45.7757 17.6439 45.4253 18.0289L45.0921 18.4349L43.5143 20.5727C41.4675 19.8612 39.342 19.4008 37.1882 19.2005L37.1875 26.9963C37.1875 28.2044 36.2081 29.1838 35 29.1838C33.8926 29.1838 32.9773 28.3609 32.8325 27.2932L32.8125 26.9963L32.8114 19.1526C28.1544 19.4837 23.5244 21.0415 19.4218 23.9142C17.0419 25.5806 14.967 27.7708 13.2421 30.3446L19.3153 33.8507C20.3615 34.4548 20.72 35.7926 20.1159 36.8389C19.5622 37.798 18.3919 38.1791 17.3948 37.7707L17.1278 37.6396L11.078 34.1484C10.7054 34.9248 10.3593 35.7242 10.0408 36.5437C9.60313 37.6698 8.33547 38.2278 7.20942 37.7901C6.08336 37.3525 5.52532 36.0848 5.963 34.9588C8.31514 28.9072 12.0276 23.7508 16.9124 20.3305C25.9304 14.016 37.1376 13.1598 46.6111 17.0704Z" fill="#70B8DF"/>
</svg>
