<svg width="70" height="70" viewBox="0 0 70 70" fill="none" xmlns="http://www.w3.org/2000/svg">
<g clip-path="url(#clip0_73_18)">
<path d="M68.6969 38.3583H52.0343C50.4791 38.3583 49.0884 38.9821 48.0694 39.9989C47.0525 41.0179 46.4266 42.4086 46.4266 43.9637C46.4266 45.5147 47.0525 46.9074 48.0694 47.9264C49.0884 48.9454 50.4791 49.567 52.0343 49.5692H68.6969C69.4147 49.5692 70 48.9839 70 48.264V39.6613C70 38.9393 69.4147 38.3583 68.6969 38.3583ZM52.1282 45.8308C51.0964 45.8308 50.2612 44.9934 50.2612 43.9637C50.2612 42.9297 51.0964 42.0923 52.1282 42.0923C53.16 42.0923 53.9974 42.9297 53.9974 43.9637C53.9974 44.9934 53.16 45.8308 52.1282 45.8308Z" fill="#70B8DF"/>
<path d="M42.9767 43.9637C42.981 38.9606 47.0312 34.9083 52.0343 34.9061H66.9922V24.1437C66.9922 19.6619 63.54 15.9876 59.1479 15.6265V15.5924H10.6683C9.38656 15.5924 8.34408 14.5521 8.34408 13.2703C8.34408 11.9844 9.38656 10.9461 10.6683 10.9461H59.1437C59.0796 6.2784 55.2772 2.51221 50.5946 2.51221H13.6847C6.33186 2.51221 0.35041 8.31633 0.0299414 15.5924H0V16.1969V26.1518V53.8032C0 61.3612 6.12678 67.4879 13.6847 67.4879H58.4408C63.1641 67.4878 66.9922 63.6575 66.9922 58.9344V53.0171H52.0343C47.0312 53.0169 42.981 48.9624 42.9767 43.9637ZM33.432 50.7974C32.9577 51.6861 32.304 52.4274 31.4795 53.0362C30.6506 53.6408 29.6615 54.0936 28.5101 54.3905C28.0059 54.5166 27.4783 54.6063 26.9421 54.6789V58.0327H22.9388V54.7472C21.798 54.6489 20.7085 54.4696 19.6831 54.1897C18.1151 53.7603 16.0623 52.0278 16.0623 52.0278C15.8871 51.9252 15.7696 51.7437 15.744 51.5428C15.7227 51.342 15.7888 51.1412 15.932 50.996L17.9379 48.9922C18.1558 48.7765 18.4912 48.7359 18.7518 48.8939C18.7518 48.8939 20.2515 50.197 21.3922 50.509C22.5288 50.8188 23.6567 50.9746 24.7825 50.9746C26.2031 50.9746 27.3779 50.7225 28.3094 50.2227C29.2409 49.7164 29.7065 48.9367 29.7065 47.8685C29.7065 47.0995 29.4801 46.4949 29.0165 46.0484C28.5593 45.6083 27.7838 45.3284 26.6901 45.2067L23.097 44.8991C20.9692 44.6898 19.3244 44.0981 18.1751 43.1218C17.0172 42.1477 16.4448 40.6673 16.4448 38.6891C16.4448 37.5931 16.6648 36.619 17.1091 35.7603C17.5535 34.9036 18.158 34.1794 18.9271 33.5899C19.6961 32.9982 20.5912 32.5516 21.6102 32.2569C22.0374 32.133 22.486 32.0518 22.9389 31.9792V29.0888H26.9422V31.9193C27.8779 32.0134 28.7666 32.1628 29.5954 32.3894C30.9989 32.7739 32.4751 33.9274 32.4751 33.9274C32.6588 34.0215 32.7869 34.2031 32.8169 34.4081C32.8489 34.6154 32.7805 34.8205 32.6331 34.9721L30.7532 36.8819C30.5524 37.0848 30.2427 37.1361 29.9864 37.0058C29.9864 37.0058 28.8734 36.2111 27.9099 35.9611C26.9464 35.709 25.9381 35.583 24.8701 35.583C23.4816 35.583 22.4518 35.85 21.7897 36.3798C21.1232 36.9138 20.792 37.6102 20.792 38.4647C20.792 39.236 21.0249 39.8277 21.5034 40.2378C21.9734 40.6544 22.7723 40.9214 23.896 41.0368L27.0447 41.306C29.3818 41.5111 31.1463 42.1306 32.3448 43.1666C33.5433 44.2027 34.1414 45.7108 34.1414 47.689C34.1413 48.877 33.9041 49.911 33.432 50.7974Z" fill="#70B8DF"/>
</g>
<defs>
<clipPath id="clip0_73_18">
<rect width="70" height="70" fill="white"/>
</clipPath>
</defs>
</svg>
