<svg width="70" height="70" viewBox="0 0 70 70" fill="none" xmlns="http://www.w3.org/2000/svg">
<g clip-path="url(#clip0_63_115)">
<path d="M29.5766 32.3152L27.0427 32.8819C26.9723 32.8972 26.9453 32.9398 26.9617 33.0111L27.6691 36.1734C27.6846 36.2439 27.727 36.2708 27.7974 36.2553L30.3312 35.6886C31.4145 35.4457 31.9996 34.6179 31.773 33.6039C31.5418 32.5725 30.659 32.0724 29.5766 32.3152Z" fill="#70B8DF"/>
<path d="M70 34.9994L61.3458 27.9405L65.311 17.5004L54.2858 15.7134L52.5 4.68939L42.06 8.65451L35 0.000488281L27.9401 8.65465L17.501 4.68939L15.714 15.7136L4.68986 17.5005L8.65402 27.9406L0 34.9994L8.65416 42.0585L4.69 52.4994L15.7142 54.2863L17.5011 65.3103L27.9403 61.3452L35 69.9994L42.0599 61.3454L52.5 65.3105L54.286 54.2864L65.3111 52.4995L61.346 42.0586L70 34.9994ZM22.6237 39.2103L18.0281 40.2387C17.9577 40.2542 17.9308 40.2975 17.9463 40.367L18.9901 45.0328C19.0142 45.1379 18.9603 45.2227 18.8552 45.2458L17.1425 45.6293C17.0375 45.6525 16.9526 45.5985 16.9285 45.4943L14.3484 33.9613C14.3253 33.8552 14.3791 33.7704 14.4843 33.7473L21.9278 32.0818C22.0328 32.0586 22.1177 32.1126 22.1417 32.2168L22.4781 33.7202C22.5012 33.8244 22.4473 33.9102 22.3422 33.9333L16.8898 35.1535C16.8205 35.1689 16.7934 35.2113 16.8089 35.2825L17.4855 38.3051C17.5008 38.3746 17.5433 38.4015 17.6138 38.3862L22.2091 37.3578C22.3143 37.3337 22.4 37.3885 22.4231 37.4937L22.7596 38.9962C22.7827 39.1015 22.7287 39.1863 22.6237 39.2103ZM35.8039 41.4542L33.8647 41.8878C33.7259 41.9187 33.644 41.8819 33.5639 41.7722L30.2561 37.649L28.2119 38.1069C28.1416 38.1222 28.1146 38.1646 28.13 38.235L29.143 42.7612C29.1662 42.8662 29.1132 42.9511 29.0071 42.9752L27.2954 43.3578C27.1893 43.3819 27.1045 43.3279 27.0814 43.2228L24.5012 31.6898C24.4772 31.5848 24.5312 31.4999 24.6362 31.4759L29.2317 30.4475C31.4166 29.9588 33.3482 31.0499 33.8175 33.1462C34.1655 34.7018 33.5438 36.1069 32.2937 36.9185L35.8751 41.1997C35.9734 41.3066 35.9272 41.4271 35.8039 41.4542ZM45.5556 39.272L38.1112 40.9375C38.0062 40.9616 37.9214 40.9076 37.8973 40.8026L35.3172 29.2696C35.2941 29.1645 35.3479 29.0797 35.4531 29.0557L42.8966 27.3902C43.0016 27.3669 43.0865 27.4209 43.1106 27.5261L43.4469 29.0286C43.47 29.1337 43.416 29.2185 43.311 29.2416L37.8587 30.462C37.7893 30.4773 37.7623 30.5198 37.7777 30.591L38.4263 33.4911C38.4427 33.5606 38.4851 33.5885 38.5546 33.573L43.1499 32.5446C43.2559 32.5215 43.3408 32.5755 43.3649 32.6795L43.7012 34.1832C43.7243 34.2872 43.6704 34.3731 43.5643 34.3962L38.9689 35.4246C38.8995 35.44 38.8726 35.4834 38.888 35.5528L39.5607 38.5579C39.5761 38.6283 39.6185 38.6562 39.6889 38.6408L45.1413 37.4205C45.2454 37.3974 45.3312 37.4514 45.3543 37.5556L45.6906 39.0591C45.7138 39.1641 45.6598 39.2489 45.5556 39.272ZM55.5157 37.0436L48.0713 38.7091C47.9672 38.7322 47.8815 38.6792 47.8583 38.5742L45.2782 27.0411C45.2542 26.9361 45.308 26.8504 45.4132 26.8272L52.8578 25.1617C52.9628 25.1386 53.0476 25.1926 53.0708 25.2976L53.4071 26.8002C53.4302 26.9052 53.3762 26.9901 53.2722 27.0132L47.8198 28.2333C47.7496 28.2488 47.7225 28.2911 47.7379 28.3625L48.3876 31.2627C48.4031 31.332 48.4455 31.3601 48.5157 31.3446L53.1113 30.3162C53.2163 30.2931 53.302 30.346 53.3252 30.4512L53.6616 31.9548C53.6847 32.0588 53.6308 32.1446 53.5257 32.1678L48.9303 33.1962C48.8599 33.2115 48.8329 33.255 48.8484 33.3244L49.521 36.3297C49.5365 36.3999 49.5789 36.428 49.6502 36.4125L55.1015 35.1923C55.2065 35.1692 55.2914 35.2232 55.3154 35.3272L55.6508 36.8309C55.6747 36.9357 55.6209 37.0206 55.5157 37.0436Z" fill="#70B8DF"/>
</g>
<defs>
<clipPath id="clip0_63_115">
<rect width="70" height="70" fill="white"/>
</clipPath>
</defs>
</svg>
