<svg width="70" height="70" viewBox="0 0 70 70" fill="none" xmlns="http://www.w3.org/2000/svg">
<g clip-path="url(#clip0_73_8)">
<g clip-path="url(#clip1_73_8)">
<path fill-rule="evenodd" clip-rule="evenodd" d="M62.2222 27.9378C62.2222 12.2111 50.0111 0 35 0C19.9889 0 7.77777 12.2111 7.77777 27.2222C3.25499 29.5439 -7.62939e-06 33.8178 -7.62939e-06 38.8889V46.6667C-7.62939e-06 49.7609 1.22916 52.7283 3.41708 54.9162C5.605 57.1042 8.57247 58.3333 11.6667 58.3333H15.5555C16.5869 58.3333 17.5761 57.9236 18.3054 57.1943C19.0347 56.465 19.4444 55.4758 19.4444 54.4444V31.1111C19.4444 30.0797 19.0347 29.0906 18.3054 28.3612C17.5761 27.6319 16.5869 27.2222 15.5555 27.2222C15.5555 22.0652 17.6042 17.1195 21.2507 13.4729C24.8972 9.82638 29.843 7.77778 35 7.77778C40.157 7.77778 45.1028 9.82638 48.7493 13.4729C52.3958 17.1195 54.4444 22.0652 54.4444 27.2222C53.413 27.2222 52.4239 27.6319 51.6946 28.3612C50.9653 29.0906 50.5555 30.0797 50.5555 31.1111V54.4444C50.5555 55.4758 50.9653 56.465 51.6946 57.1943C52.4239 57.9236 53.413 58.3333 54.4444 58.3333V62.2222H44.3644C43.5633 59.9628 41.4244 58.3333 38.8889 58.3333H31.1111C29.564 58.3333 28.0803 58.9479 26.9863 60.0419C25.8923 61.1358 25.2778 62.6196 25.2778 64.1667C25.2778 65.7138 25.8923 67.1975 26.9863 68.2915C28.0803 69.3854 29.564 70 31.1111 70H54.4444C56.5072 70 58.4855 69.1805 59.9442 67.7219C61.4028 66.2633 62.2222 64.285 62.2222 62.2222V57.6217C64.4922 56.8239 66.4591 55.3421 67.852 53.3802C69.2449 51.4182 69.9954 49.0728 70 46.6667V38.8889C69.9957 36.4832 69.2453 34.138 67.8523 32.1767C66.4593 30.2153 64.4922 28.7343 62.2222 27.9378L-27.2222 241.111L62.2222 27.9378Z" fill="#70B8DF"/>
</g>
</g>
<defs>
<clipPath id="clip0_73_8">
<rect width="70" height="70" fill="white"/>
</clipPath>
<clipPath id="clip1_73_8">
<rect width="70" height="70" fill="white"/>
</clipPath>
</defs>
</svg>
