<svg width="50" height="50" viewBox="0 0 50 50" fill="none" xmlns="http://www.w3.org/2000/svg">
<path fill-rule="evenodd" clip-rule="evenodd" d="M25 45.8333C15.1791 45.8333 10.2686 45.8333 7.21765 42.7822C4.16667 39.7314 4.16667 34.8208 4.16667 25C4.16667 15.179 4.16667 10.2686 7.21765 7.2176C10.2686 4.16663 15.1791 4.16663 25 4.16663C34.8208 4.16663 39.7315 4.16663 42.7823 7.2176C45.8333 10.2686 45.8333 15.179 45.8333 25C45.8333 34.8208 45.8333 39.7314 42.7823 42.7822C39.7315 45.8333 34.8208 45.8333 25 45.8333ZM33.3965 18.6868C34.0067 19.297 34.0067 20.2863 33.3965 20.8964L22.9798 31.3131C22.3696 31.9233 21.3804 31.9233 20.7702 31.3131L16.6035 27.1464C15.9933 26.5362 15.9933 25.547 16.6035 24.9368C17.2137 24.3266 18.203 24.3266 18.8132 24.9368L21.875 27.9985L31.1869 18.6868C31.7971 18.0766 32.7863 18.0766 33.3965 18.6868Z" fill="#70B8DF"/>
</svg>
