<svg width="25" height="27" viewBox="0 0 25 27" fill="none" xmlns="http://www.w3.org/2000/svg">
<g clip-path="url(#clip0_26_2)">
<path d="M8.59919 8.37128C8.59919 8.37128 8.59919 4.61274 8.59919 3.3599C8.59919 1.70842 9.96593 0.455566 11.1049 0.455566C12.2438 0.455566 21.1846 0.455566 22.2097 0.455566C23.2347 0.455566 24.6015 1.82231 24.6015 3.07516C24.6015 4.32801 24.6015 22.3804 24.6015 23.5193C24.6015 24.6583 23.4625 25.9112 22.2666 25.9112C21.0707 25.9112 12.4147 25.9112 11.1618 25.9112C9.90898 25.9112 8.54224 24.7722 8.54224 23.5763C8.54224 22.3804 8.54224 18.2232 8.54224 18.2232" stroke="black" stroke-width="1.5" stroke-miterlimit="10" stroke-linecap="round"/>
<path d="M13.041 7.91571L18.451 13.2688L12.9271 18.7927" stroke="black" stroke-width="1.5" stroke-miterlimit="10" stroke-linecap="round" stroke-linejoin="round"/>
<path d="M0.512573 13.3257H17.7677" stroke="black" stroke-width="1.5" stroke-miterlimit="10" stroke-linecap="round"/>
</g>
<defs>
<clipPath id="clip0_26_2">
<rect width="25" height="26.3098" fill="white"/>
</clipPath>
</defs>
</svg>
