<svg width="50" height="50" viewBox="0 0 50 50" fill="none" xmlns="http://www.w3.org/2000/svg">
<g clip-path="url(#clip0_88_5)">
<path d="M4.48883 37.5107C4.48883 34.9821 4.48883 5.37579 4.48883 2.84498C6.99251 2.84498 33.702 2.84498 36.2057 2.84498C36.2057 3.73981 36.2057 8.02414 36.2057 13.2915C36.8181 13.1785 37.4462 13.1017 38.0902 13.1017C38.4201 13.1017 38.732 13.1695 39.0573 13.1989V0H1.63934V40.3557H25.1717V37.5107C16.6075 37.5107 6.02089 37.5107 4.48883 37.5107Z" fill="#F5F5F5"/>
<path d="M8.54053 21.668H27.8676C28.0574 20.6037 28.4325 19.614 28.9251 18.6875H8.54053V21.668Z" fill="#F5F5F5"/>
<path d="M32.1497 9.36865H8.54053V12.3492H32.1497V9.36865Z" fill="#F5F5F5"/>
<path d="M8.54053 30.9893H28.5771C29.1126 30.6639 29.6844 30.3995 30.2967 30.2369C29.7159 29.5612 29.2392 28.802 28.8324 28.0088H8.54053V30.9893Z" fill="#F5F5F5"/>
<path d="M38.0925 31.2875C42.395 31.2875 45.8613 27.8099 45.8613 23.5209C45.8613 19.2276 42.3949 15.7522 38.0925 15.7522C33.8082 15.7522 30.3396 19.2276 30.3396 23.5209C30.3396 27.8099 33.8082 31.2875 38.0925 31.2875Z" fill="#F5F5F5"/>
<path d="M44.327 32.5486H31.8762C29.6526 32.5486 27.8313 34.5868 27.8313 37.0973V49.5979C27.8313 49.7358 27.8946 49.8578 27.9036 50.0002H48.2882C48.2972 49.8601 48.3604 49.7358 48.3604 49.5979V37.0973C48.3696 34.5935 46.5528 32.5486 44.327 32.5486Z" fill="#F5F5F5"/>
</g>
<defs>
<clipPath id="clip0_88_5">
<rect width="50" height="50" fill="white"/>
</clipPath>
</defs>
</svg>
