<svg width="202" height="74" viewBox="0 0 202 74" fill="none" xmlns="http://www.w3.org/2000/svg">
<path d="M86.8066 52.3691L90.3076 46.8906H91.25V54H90.3076V48.5166L86.8066 54H85.8691V46.8906H86.8066V52.3691ZM97.6074 49.9473V50.7139H93.7598V49.9473H97.6074ZM93.9062 46.8906V54H92.9639V46.8906H93.9062ZM98.4277 46.8906V54H97.4902V46.8906H98.4277ZM102.583 46.8906V54H101.655V46.8906H102.583ZM104.868 46.8906V47.6621H99.375V46.8906H104.868ZM110.439 53.2334V54H106.675V53.2334H110.439ZM106.865 46.8906V54H105.923V46.8906H106.865ZM109.941 49.9473V50.7139H106.675V49.9473H109.941ZM110.391 46.8906V47.6621H106.675V46.8906H110.391ZM114.229 51.2119H112.329V50.4453H114.229C114.596 50.4453 114.894 50.3867 115.122 50.2695C115.35 50.1523 115.516 49.9896 115.62 49.7812C115.728 49.5729 115.781 49.3353 115.781 49.0684C115.781 48.8242 115.728 48.5947 115.62 48.3799C115.516 48.165 115.35 47.9925 115.122 47.8623C114.894 47.7288 114.596 47.6621 114.229 47.6621H112.549V54H111.606V46.8906H114.229C114.766 46.8906 115.22 46.9834 115.591 47.1689C115.962 47.3545 116.243 47.6117 116.436 47.9404C116.628 48.266 116.724 48.6387 116.724 49.0586C116.724 49.5143 116.628 49.9033 116.436 50.2256C116.243 50.5479 115.962 50.7936 115.591 50.9629C115.22 51.1289 114.766 51.2119 114.229 51.2119ZM122.559 49.9473V50.7139H118.711V49.9473H122.559ZM118.857 46.8906V54H117.915V46.8906H118.857ZM123.379 46.8906V54H122.441V46.8906H123.379ZM129.57 53.2334V54H125.806V53.2334H129.57ZM125.996 46.8906V54H125.054V46.8906H125.996ZM129.072 49.9473V50.7139H125.806V49.9473H129.072ZM129.521 46.8906V47.6621H125.806V46.8906H129.521ZM133.462 46.8906V54H132.534V46.8906H133.462ZM135.747 46.8906V47.6621H130.254V46.8906H135.747ZM137.412 50.6064V51.3486H135.029V50.6064H137.412ZM143.862 46.8906V54H142.925V47.6621H139.419V54H138.477V46.8906H143.862ZM148.193 51.2119H146.294V50.4453H148.193C148.561 50.4453 148.859 50.3867 149.087 50.2695C149.315 50.1523 149.481 49.9896 149.585 49.7812C149.692 49.5729 149.746 49.3353 149.746 49.0684C149.746 48.8242 149.692 48.5947 149.585 48.3799C149.481 48.165 149.315 47.9925 149.087 47.8623C148.859 47.7288 148.561 47.6621 148.193 47.6621H146.514V54H145.571V46.8906H148.193C148.73 46.8906 149.185 46.9834 149.556 47.1689C149.927 47.3545 150.208 47.6117 150.4 47.9404C150.592 48.266 150.688 48.6387 150.688 49.0586C150.688 49.5143 150.592 49.9033 150.4 50.2256C150.208 50.5479 149.927 50.7936 149.556 50.9629C149.185 51.1289 148.73 51.2119 148.193 51.2119ZM157.354 50.2207V50.6699C157.354 51.2038 157.287 51.6823 157.153 52.1055C157.02 52.5286 156.828 52.8883 156.577 53.1846C156.326 53.4808 156.025 53.707 155.674 53.8633C155.326 54.0195 154.935 54.0977 154.502 54.0977C154.082 54.0977 153.696 54.0195 153.345 53.8633C152.996 53.707 152.694 53.4808 152.437 53.1846C152.183 52.8883 151.986 52.5286 151.846 52.1055C151.706 51.6823 151.636 51.2038 151.636 50.6699V50.2207C151.636 49.6868 151.704 49.21 151.841 48.79C151.981 48.3669 152.178 48.0072 152.432 47.7109C152.686 47.4115 152.987 47.1836 153.335 47.0273C153.687 46.8711 154.072 46.793 154.492 46.793C154.925 46.793 155.316 46.8711 155.664 47.0273C156.016 47.1836 156.317 47.4115 156.567 47.7109C156.821 48.0072 157.015 48.3669 157.148 48.79C157.285 49.21 157.354 49.6868 157.354 50.2207ZM156.421 50.6699V50.2109C156.421 49.7878 156.377 49.4134 156.289 49.0879C156.204 48.7624 156.079 48.4889 155.913 48.2676C155.747 48.0462 155.544 47.8786 155.303 47.7646C155.065 47.6507 154.795 47.5938 154.492 47.5938C154.199 47.5938 153.934 47.6507 153.696 47.7646C153.462 47.8786 153.26 48.0462 153.091 48.2676C152.925 48.4889 152.796 48.7624 152.705 49.0879C152.614 49.4134 152.568 49.7878 152.568 50.2109V50.6699C152.568 51.0964 152.614 51.474 152.705 51.8027C152.796 52.1283 152.926 52.4033 153.096 52.6279C153.268 52.8493 153.472 53.0169 153.706 53.1309C153.944 53.2448 154.209 53.3018 154.502 53.3018C154.808 53.3018 155.08 53.2448 155.317 53.1309C155.555 53.0169 155.755 52.8493 155.918 52.6279C156.084 52.4033 156.209 52.1283 156.294 51.8027C156.379 51.474 156.421 51.0964 156.421 50.6699ZM161.299 50.6748H159.497L159.487 49.918H161.123C161.393 49.918 161.629 49.8724 161.831 49.7812C162.033 49.6901 162.189 49.5599 162.3 49.3906C162.414 49.2181 162.471 49.013 162.471 48.7754C162.471 48.515 162.42 48.3034 162.319 48.1406C162.222 47.9746 162.07 47.8542 161.865 47.7793C161.663 47.7012 161.406 47.6621 161.094 47.6621H159.707V54H158.765V46.8906H161.094C161.458 46.8906 161.784 46.9281 162.07 47.0029C162.357 47.0745 162.599 47.1885 162.798 47.3447C163 47.4977 163.153 47.693 163.257 47.9307C163.361 48.1683 163.413 48.4531 163.413 48.7852C163.413 49.0781 163.338 49.3434 163.188 49.5811C163.039 49.8154 162.83 50.0075 162.563 50.1572C162.3 50.307 161.991 50.403 161.636 50.4453L161.299 50.6748ZM161.255 54H159.126L159.658 53.2334H161.255C161.554 53.2334 161.808 53.1813 162.017 53.0771C162.228 52.973 162.389 52.8265 162.5 52.6377C162.611 52.4456 162.666 52.2194 162.666 51.959C162.666 51.6953 162.619 51.4674 162.524 51.2754C162.43 51.0833 162.282 50.9352 162.08 50.8311C161.878 50.7269 161.618 50.6748 161.299 50.6748H159.956L159.966 49.918H161.802L162.002 50.1914C162.344 50.2207 162.633 50.3184 162.871 50.4844C163.109 50.6471 163.289 50.8555 163.413 51.1094C163.54 51.3633 163.604 51.6432 163.604 51.9492C163.604 52.3919 163.506 52.7663 163.311 53.0723C163.118 53.375 162.847 53.6061 162.495 53.7656C162.144 53.9219 161.73 54 161.255 54ZM167.627 47.5205L165.273 54H164.312L167.021 46.8906H167.642L167.627 47.5205ZM169.6 54L167.241 47.5205L167.227 46.8906H167.847L170.566 54H169.6ZM169.478 51.3682V52.1396H165.483V51.3682H169.478ZM172.5 52.3691L176.001 46.8906H176.943V54H176.001V48.5166L172.5 54H171.562V46.8906H172.5V52.3691ZM175 45.1279H175.732C175.732 45.3818 175.674 45.6081 175.557 45.8066C175.439 46.002 175.272 46.1549 175.054 46.2656C174.836 46.3763 174.577 46.4316 174.277 46.4316C173.825 46.4316 173.467 46.3112 173.203 46.0703C172.943 45.8262 172.812 45.512 172.812 45.1279H173.545C173.545 45.32 173.6 45.4893 173.711 45.6357C173.822 45.7822 174.01 45.8555 174.277 45.8555C174.538 45.8555 174.723 45.7822 174.834 45.6357C174.945 45.4893 175 45.32 175 45.1279ZM184.248 53.2334V54H178.867V53.2334H184.248ZM179.019 53.2334V55.748H178.086L178.081 53.2334H179.019ZM185.068 53.2334L185.059 55.7432H184.126V53.2334H185.068ZM183.325 46.8906V47.6621H180.21V46.8906H183.325ZM184.136 46.8906V54H183.198V46.8906H184.136ZM179.888 46.8906H180.83L180.684 49.752C180.664 50.1816 180.623 50.5788 180.562 50.9434C180.5 51.3047 180.423 51.6351 180.332 51.9346C180.241 52.234 180.137 52.5026 180.02 52.7402C179.902 52.9746 179.777 53.1781 179.644 53.3506C179.51 53.5199 179.37 53.6598 179.224 53.7705C179.08 53.8779 178.936 53.9544 178.789 54H178.359V53.2334H178.662C178.747 53.1423 178.843 53.0104 178.95 52.8379C179.061 52.6654 179.17 52.4424 179.277 52.1689C179.388 51.8923 179.484 51.5553 179.565 51.1582C179.65 50.7611 179.707 50.2923 179.736 49.752L179.888 46.8906ZM190.693 53.2334V54H186.929V53.2334H190.693ZM187.119 46.8906V54H186.177V46.8906H187.119ZM190.195 49.9473V50.7139H186.929V49.9473H190.195ZM190.645 46.8906V47.6621H186.929V46.8906H190.645ZM194.482 51.2119H192.583V50.4453H194.482C194.85 50.4453 195.148 50.3867 195.376 50.2695C195.604 50.1523 195.77 49.9896 195.874 49.7812C195.981 49.5729 196.035 49.3353 196.035 49.0684C196.035 48.8242 195.981 48.5947 195.874 48.3799C195.77 48.165 195.604 47.9925 195.376 47.8623C195.148 47.7288 194.85 47.6621 194.482 47.6621H192.803V54H191.86V46.8906H194.482C195.02 46.8906 195.474 46.9834 195.845 47.1689C196.216 47.3545 196.497 47.6117 196.689 47.9404C196.882 48.266 196.978 48.6387 196.978 49.0586C196.978 49.5143 196.882 49.9033 196.689 50.2256C196.497 50.5479 196.216 50.7936 195.845 50.9629C195.474 51.1289 195.02 51.2119 194.482 51.2119Z" fill="#E9E8E6"/>
<path d="M94.166 23.6768L89.1387 39H85.0889L91.957 20.5156H94.5342L94.166 23.6768ZM98.3428 39L93.3027 23.6768L92.8965 20.5156H95.499L102.405 39H98.3428ZM98.1143 32.1191V35.1025H88.3516V32.1191H98.1143ZM111.317 35.2041C111.317 34.9417 111.241 34.7048 111.089 34.4932C110.937 34.2816 110.653 34.0869 110.238 33.9092C109.832 33.723 109.244 33.5537 108.474 33.4014C107.78 33.249 107.132 33.0586 106.531 32.8301C105.939 32.5931 105.423 32.3096 104.982 31.9795C104.551 31.6494 104.212 31.2601 103.967 30.8115C103.721 30.3545 103.599 29.834 103.599 29.25C103.599 28.6745 103.721 28.1328 103.967 27.625C104.221 27.1172 104.58 26.6686 105.046 26.2793C105.52 25.8815 106.095 25.5726 106.772 25.3525C107.458 25.124 108.228 25.0098 109.083 25.0098C110.276 25.0098 111.3 25.2002 112.155 25.5811C113.019 25.9619 113.679 26.4867 114.136 27.1553C114.601 27.8154 114.834 28.5687 114.834 29.415H111.178C111.178 29.0596 111.102 28.7422 110.949 28.4629C110.805 28.1751 110.577 27.9508 110.264 27.79C109.959 27.6208 109.561 27.5361 109.07 27.5361C108.664 27.5361 108.313 27.6081 108.017 27.752C107.72 27.8874 107.492 28.0736 107.331 28.3105C107.179 28.5391 107.103 28.793 107.103 29.0723C107.103 29.2839 107.145 29.4743 107.229 29.6436C107.323 29.8044 107.471 29.9525 107.674 30.0879C107.877 30.2233 108.139 30.3503 108.461 30.4688C108.791 30.5788 109.197 30.6803 109.68 30.7734C110.67 30.9766 111.554 31.2432 112.333 31.5732C113.112 31.8949 113.729 32.335 114.187 32.8936C114.644 33.4437 114.872 34.1673 114.872 35.0645C114.872 35.6738 114.737 36.2324 114.466 36.7402C114.195 37.248 113.806 37.6924 113.298 38.0732C112.79 38.4456 112.181 38.7376 111.47 38.9492C110.767 39.1523 109.976 39.2539 109.096 39.2539C107.818 39.2539 106.734 39.0254 105.846 38.5684C104.965 38.1113 104.297 37.5316 103.84 36.8291C103.391 36.1182 103.167 35.3903 103.167 34.6455H106.633C106.65 35.1449 106.777 35.5469 107.014 35.8516C107.259 36.1562 107.568 36.3763 107.94 36.5117C108.321 36.6471 108.732 36.7148 109.172 36.7148C109.646 36.7148 110.039 36.6514 110.353 36.5244C110.666 36.389 110.903 36.2113 111.063 35.9912C111.233 35.7627 111.317 35.5003 111.317 35.2041ZM123.975 25.2637V27.8535H115.977V25.2637H123.975ZM117.957 21.874H121.613V34.8613C121.613 35.2591 121.664 35.5638 121.766 35.7754C121.876 35.987 122.036 36.1351 122.248 36.2197C122.46 36.2959 122.726 36.334 123.048 36.334C123.276 36.334 123.479 36.3255 123.657 36.3086C123.843 36.2832 124 36.2578 124.127 36.2324L124.14 38.9238C123.826 39.0254 123.488 39.1058 123.124 39.165C122.76 39.2243 122.358 39.2539 121.918 39.2539C121.114 39.2539 120.411 39.1227 119.811 38.8604C119.218 38.5895 118.761 38.1579 118.439 37.5654C118.118 36.973 117.957 36.1943 117.957 35.2295V21.874ZM129.713 28.2598V39H126.057V25.2637H129.497L129.713 28.2598ZM133.852 25.1748L133.788 28.5645C133.61 28.5391 133.395 28.5179 133.141 28.501C132.895 28.4756 132.671 28.4629 132.468 28.4629C131.951 28.4629 131.503 28.5306 131.122 28.666C130.75 28.793 130.437 28.9834 130.183 29.2373C129.937 29.4912 129.751 29.8001 129.624 30.1641C129.506 30.528 129.438 30.9427 129.421 31.4082L128.685 31.1797C128.685 30.291 128.773 29.4743 128.951 28.7295C129.129 27.9762 129.387 27.3203 129.726 26.7617C130.073 26.2031 130.496 25.7715 130.995 25.4668C131.494 25.1621 132.066 25.0098 132.709 25.0098C132.912 25.0098 133.119 25.0267 133.331 25.0605C133.543 25.0859 133.716 25.124 133.852 25.1748ZM142.561 35.9023V29.7832C142.561 29.3431 142.489 28.9665 142.345 28.6533C142.201 28.3317 141.977 28.082 141.672 27.9043C141.376 27.7266 140.991 27.6377 140.517 27.6377C140.11 27.6377 139.759 27.7096 139.463 27.8535C139.167 27.9889 138.938 28.1878 138.777 28.4502C138.617 28.7041 138.536 29.0046 138.536 29.3516H134.88C134.88 28.7676 135.015 28.2132 135.286 27.6885C135.557 27.1637 135.951 26.7025 136.467 26.3047C136.983 25.8984 137.597 25.5811 138.308 25.3525C139.027 25.124 139.831 25.0098 140.72 25.0098C141.786 25.0098 142.734 25.1875 143.563 25.543C144.393 25.8984 145.045 26.4316 145.519 27.1426C146.001 27.8535 146.242 28.7422 146.242 29.8086V35.6865C146.242 36.4398 146.289 37.0576 146.382 37.54C146.475 38.014 146.61 38.4287 146.788 38.7842V39H143.094C142.916 38.6276 142.781 38.1621 142.688 37.6035C142.603 37.0365 142.561 36.4694 142.561 35.9023ZM143.043 30.6338L143.068 32.7031H141.024C140.542 32.7031 140.123 32.7581 139.768 32.8682C139.412 32.9782 139.12 33.1348 138.892 33.3379C138.663 33.5326 138.494 33.7611 138.384 34.0234C138.282 34.2858 138.231 34.5736 138.231 34.8867C138.231 35.1999 138.303 35.4834 138.447 35.7373C138.591 35.9827 138.799 36.1774 139.069 36.3213C139.34 36.4567 139.658 36.5244 140.021 36.5244C140.572 36.5244 141.05 36.4144 141.456 36.1943C141.862 35.9743 142.175 35.7035 142.396 35.3818C142.624 35.0602 142.743 34.7555 142.751 34.4678L143.716 36.0166C143.58 36.3636 143.394 36.7233 143.157 37.0957C142.929 37.4681 142.637 37.8193 142.281 38.1494C141.926 38.471 141.498 38.7376 140.999 38.9492C140.5 39.1523 139.907 39.2539 139.222 39.2539C138.35 39.2539 137.559 39.0804 136.848 38.7334C136.145 38.3779 135.587 37.8913 135.172 37.2734C134.766 36.6471 134.562 35.9362 134.562 35.1406C134.562 34.4212 134.698 33.7822 134.969 33.2236C135.24 32.665 135.637 32.1953 136.162 31.8145C136.695 31.4251 137.36 31.1331 138.155 30.9385C138.951 30.7354 139.873 30.6338 140.923 30.6338H143.043ZM152.92 19.5V39H149.251V19.5H152.92Z" fill="#E9E8E6"/>
<path d="M171.214 20.5156V39H167.405L159.979 26.6094V39H156.17V20.5156H159.979L167.418 32.9189V20.5156H171.214ZM180.621 39.2539C179.555 39.2539 178.598 39.0846 177.752 38.7461C176.906 38.3991 176.186 37.9209 175.594 37.3115C175.01 36.7021 174.561 35.9954 174.248 35.1914C173.935 34.3789 173.778 33.5156 173.778 32.6016V32.0938C173.778 31.0527 173.926 30.1006 174.223 29.2373C174.519 28.374 174.942 27.625 175.492 26.9902C176.051 26.3555 176.728 25.8688 177.523 25.5303C178.319 25.1833 179.216 25.0098 180.215 25.0098C181.188 25.0098 182.051 25.1706 182.805 25.4922C183.558 25.8138 184.188 26.2708 184.696 26.8633C185.213 27.4557 185.602 28.1667 185.864 28.9961C186.127 29.8171 186.258 30.7311 186.258 31.7383V33.2617H175.34V30.8242H182.665V30.5449C182.665 30.0371 182.572 29.5843 182.386 29.1865C182.208 28.7803 181.937 28.4587 181.573 28.2217C181.209 27.9847 180.744 27.8662 180.177 27.8662C179.694 27.8662 179.28 27.972 178.933 28.1836C178.586 28.3952 178.302 28.6914 178.082 29.0723C177.87 29.4531 177.71 29.9017 177.6 30.418C177.498 30.9258 177.447 31.4844 177.447 32.0938V32.6016C177.447 33.1517 177.523 33.6595 177.676 34.125C177.837 34.5905 178.061 34.9925 178.349 35.3311C178.645 35.6696 179 35.932 179.415 36.1182C179.838 36.3044 180.316 36.3975 180.85 36.3975C181.51 36.3975 182.123 36.2705 182.69 36.0166C183.266 35.7542 183.761 35.3607 184.176 34.8359L185.953 36.7656C185.665 37.1803 185.272 37.5781 184.772 37.959C184.282 38.3398 183.689 38.653 182.995 38.8984C182.301 39.1354 181.51 39.2539 180.621 39.2539ZM195.068 25.2637V27.8535H187.07V25.2637H195.068ZM189.051 21.874H192.707V34.8613C192.707 35.2591 192.758 35.5638 192.859 35.7754C192.969 35.987 193.13 36.1351 193.342 36.2197C193.553 36.2959 193.82 36.334 194.142 36.334C194.37 36.334 194.573 36.3255 194.751 36.3086C194.937 36.2832 195.094 36.2578 195.221 36.2324L195.233 38.9238C194.92 39.0254 194.582 39.1058 194.218 39.165C193.854 39.2243 193.452 39.2539 193.012 39.2539C192.208 39.2539 191.505 39.1227 190.904 38.8604C190.312 38.5895 189.855 38.1579 189.533 37.5654C189.212 36.973 189.051 36.1943 189.051 35.2295V21.874Z" fill="#70B8DF"/>
<path d="M24.0404 17.8665C26.2712 12.6369 31.5772 8.96482 37.7612 8.96482C43.9453 8.96482 49.2516 12.6369 51.4822 17.8665C51.9775 19.0276 53.3484 19.579 54.5444 19.0982C55.7403 18.6173 56.3084 17.2863 55.8131 16.1252C52.8822 9.25426 45.9069 4.41385 37.7612 4.41385C29.6159 4.41385 22.6405 9.25426 19.7096 16.1252C19.2143 17.2863 19.7823 18.6173 20.9782 19.0982C22.1742 19.579 23.5451 19.0276 24.0404 17.8665Z" fill="#70B8DF"/>
<path d="M21.875 46.1311C21.875 47.8068 20.4759 49.1651 18.75 49.1651C17.0241 49.1651 15.625 47.8068 15.625 46.1311C15.625 44.4554 17.0241 43.0971 18.75 43.0971C20.4759 43.0971 21.875 44.4554 21.875 46.1311Z" fill="#E9E8E6"/>
<path d="M31.25 46.1311C31.25 47.8068 29.8509 49.1651 28.125 49.1651C26.3991 49.1651 25 47.8068 25 46.1311C25 44.4554 26.3991 43.0971 28.125 43.0971C29.8509 43.0971 31.25 44.4554 31.25 46.1311Z" fill="#E9E8E6"/>
<path d="M41.4062 46.1311C41.4062 44.8744 42.4556 43.8556 43.75 43.8556H56.25C57.5444 43.8556 58.5938 44.8744 58.5938 46.1311C58.5938 47.3878 57.5444 48.4066 56.25 48.4066H43.75C42.4556 48.4066 41.4062 47.3878 41.4062 46.1311Z" fill="#70B8DF"/>
<path fill-rule="evenodd" clip-rule="evenodd" d="M8.21219 10.7816C9.33607 10.1581 10.7678 10.5372 11.41 11.6283L23.2352 31.7197H51.765L63.59 11.6283C64.2322 10.5372 65.6641 10.1581 66.7878 10.7816C67.9116 11.4051 68.3022 12.7951 67.66 13.8862L57.1638 31.72C59.6403 31.7215 61.73 31.7415 63.4203 31.9621C65.3822 32.2181 67.1534 32.7816 68.5766 34.1635C70 35.5452 70.5803 37.2649 70.8441 39.1696C71.0941 40.9742 71.0938 43.2473 71.0938 45.9733V46.2888C71.0938 49.0149 71.0941 51.2879 70.8441 53.0925C70.5803 54.9973 70 56.7169 68.5766 58.0986C67.1534 59.4806 65.3822 60.044 63.4203 60.3001C61.5619 60.5428 59.2206 60.5425 56.4131 60.5425H18.5875C15.7801 60.5425 13.4383 60.5428 11.5798 60.3001C9.61791 60.044 7.84666 59.4806 6.42332 58.0986C4.99997 56.7169 4.41975 54.9973 4.15597 53.0925C3.9061 51.2879 3.90616 49.0149 3.90625 46.2888V45.9733C3.90616 43.2473 3.9061 40.9742 4.15597 39.1696C4.41975 37.2649 4.99997 35.5452 6.42332 34.1635C7.84666 32.7816 9.61791 32.2181 11.5798 31.9621C13.2702 31.7415 15.3598 31.7215 17.8364 31.72L7.34007 13.8862C6.69785 12.7951 7.08832 11.4051 8.21219 10.7816ZM53.0794 36.2706C53.1084 36.2712 53.1372 36.2712 53.1663 36.2706H56.25C59.2625 36.2706 61.2863 36.2755 62.7956 36.4724C64.2378 36.6608 64.855 36.986 65.2622 37.3814C65.6694 37.7767 66.0044 38.3759 66.1984 39.7761C66.4013 41.2415 66.4063 43.2063 66.4063 46.1311C66.4063 49.0558 66.4013 51.0206 66.1984 52.486C66.0044 53.8862 65.6694 54.4854 65.2622 54.8808C64.855 55.2761 64.2378 55.6013 62.7956 55.7897C61.2863 55.9867 59.2625 55.9915 56.25 55.9915H18.75C15.7375 55.9915 13.7138 55.9867 12.2044 55.7897C10.7623 55.6013 10.1451 55.2761 9.73788 54.8808C9.33063 54.4854 8.99557 53.8862 8.80169 52.486C8.59875 51.0206 8.59375 49.0558 8.59375 46.1311C8.59375 43.2063 8.59875 41.2415 8.80169 39.7761C8.99557 38.3759 9.33063 37.7767 9.73788 37.3814C10.1451 36.986 10.7623 36.6608 12.2044 36.4724C13.7138 36.2755 15.7375 36.2706 18.75 36.2706H21.8339C21.8627 36.2712 21.8916 36.2712 21.9205 36.2706H53.0794Z" fill="#E9E8E6"/>
<path d="M37.7637 16.5498C34.5687 16.5498 31.8659 18.6203 31.0127 21.4594C30.6502 22.6658 29.3489 23.3584 28.1063 23.0063C26.8637 22.6543 26.1503 21.3909 26.5129 20.1845C27.9339 15.4566 32.4297 11.9988 37.7637 11.9988C43.0975 11.9988 47.5934 15.4566 49.0144 20.1845C49.3769 21.3909 48.6634 22.6543 47.4209 23.0063C46.1784 23.3584 44.8772 22.6658 44.5147 21.4594C43.6612 18.6203 40.9584 16.5498 37.7637 16.5498Z" fill="#70B8DF"/>
<path d="M37.7625 24.8932C39.4884 24.8932 40.8875 23.5348 40.8875 21.8592C40.8875 20.1836 39.4884 18.8253 37.7625 18.8253C36.0366 18.8253 34.6375 20.1836 34.6375 21.8592C34.6375 23.5348 36.0366 24.8932 37.7625 24.8932Z" fill="#70B8DF"/>
</svg>
