<svg width="60" height="60" viewBox="0 0 60 60" fill="none" xmlns="http://www.w3.org/2000/svg">
<path d="M21.1028 7.40444C20.3509 5.58811 18.3686 4.62136 16.4741 5.13891L7.88073 7.48256C6.18159 7.95129 5 9.49419 5 11.2519C5 35.411 24.589 55 48.7481 55C50.5058 55 52.0487 53.8184 52.5174 52.1193L54.8611 43.5259C55.3786 41.6315 54.4119 39.6491 52.5956 38.8972L43.221 34.9911C41.6292 34.3271 39.7836 34.786 38.6997 36.1239L34.7545 40.9381C27.8799 37.6863 22.3137 32.1201 19.0619 25.2455L23.8761 21.3101C25.214 20.2164 25.6729 18.3805 25.0089 16.7888L21.1028 7.41421V7.40444Z" fill="black"/>
</svg>
