<svg width="20" height="20" viewBox="0 0 20 20" fill="none" xmlns="http://www.w3.org/2000/svg">
<g clip-path="url(#clip0_153_68)">
<mask id="mask0_153_68" style="mask-type:luminance" maskUnits="userSpaceOnUse" x="0" y="0" width="20" height="20">
<path d="M19.375 0H0V20H19.375V0Z" fill="white"/>
</mask>
<g mask="url(#mask0_153_68)">
<path d="M9.6875 0.3125C4.33594 0.3125 0 4.64844 0 10C0 15.3516 4.33594 19.6875 9.6875 19.6875C15.0391 19.6875 19.375 15.3516 19.375 10C19.375 4.64844 15.0391 0.3125 9.6875 0.3125ZM14.1797 6.90234C14.0352 8.43359 13.4023 12.1523 13.082 13.8672C12.9453 14.5938 12.6797 14.8359 12.4219 14.8594C11.8594 14.9102 11.4336 14.4883 10.8867 14.1289C10.0352 13.5703 9.55078 13.2227 8.72656 12.6758C7.76953 12.0469 8.39062 11.6992 8.93359 11.1328C9.07812 10.9844 11.5547 8.73047 11.6016 8.52734C11.6094 8.5 11.6133 8.40625 11.5547 8.35547C11.4961 8.30469 11.4141 8.32422 11.3555 8.33594C11.2695 8.35417 9.90755 9.25391 7.26953 11.0352C6.88411 11.3008 6.53385 11.4297 6.21875 11.4219C5.87109 11.4141 5.20703 11.2266 4.71094 11.0664C4.10547 10.8711 3.62109 10.7656 3.66406 10.4297C3.6849 10.2552 3.92578 10.0768 4.38672 9.89453C7.20964 8.66536 9.09245 7.85417 10.0352 7.46094C12.7266 6.34375 13.2852 6.14844 13.6484 6.14062C13.7305 6.14062 13.9062 6.16016 14.0234 6.25391C14.0999 6.32115 14.1487 6.41444 14.1602 6.51563C14.1813 6.64338 14.1878 6.77311 14.1797 6.90234Z" fill="#F5F5F5"/>
</g>
</g>
<defs>
<clipPath id="clip0_153_68">
<rect width="20" height="20" fill="white"/>
</clipPath>
</defs>
</svg>
